<?xml version="1.0" standalone="no"?>
<!DOCTYPE svg PUBLIC "-//W3C//DTD SVG 20010904//EN"
 "http://www.w3.org/TR/2001/REC-SVG-20010904/DTD/svg10.dtd">
<svg version="1.0" xmlns="http://www.w3.org/2000/svg"
 width="365.000000pt" height="365.000000pt" viewBox="0 0 365.000000 365.000000"
 preserveAspectRatio="xMidYMid meet">

<g transform="translate(0.000000,365.000000) scale(0.100000,-0.100000)"
fill="#000000" stroke="none">
<path d="M1670 3589 c-282 -23 -572 -123 -810 -279 -998 -654 -1083 -2079
-170 -2844 654 -548 1613 -548 2271 0 748 623 848 1748 223 2494 -308 368
-738 590 -1221 630 -131 11 -156 11 -293 -1z m495 -69 c240 -52 477 -154 665
-288 122 -86 316 -280 402 -402 135 -189 236 -424 290 -670 20 -92 22 -133 22
-335 0 -202 -2 -243 -22 -335 -54 -246 -155 -481 -290 -670 -86 -122 -280
-316 -402 -402 -189 -135 -424 -236 -670 -290 -92 -20 -133 -22 -335 -22 -202
0 -243 2 -335 22 -246 54 -481 155 -670 290 -122 86 -316 280 -402 402 -147
208 -255 470 -298 725 -19 114 -22 154 -17 325 4 137 11 223 25 290 49 233
156 482 290 670 86 122 280 316 402 402 218 155 476 259 749 303 132 22 466
13 596 -15z"/>
<path d="M1680 3534 c-320 -37 -563 -123 -802 -283 -407 -273 -662 -671 -749
-1171 -17 -98 -17 -412 0 -510 60 -345 191 -624 411 -878 219 -251 538 -446
860 -526 166 -42 239 -50 425 -50 186 0 259 8 425 50 595 148 1086 639 1234
1234 42 166 50 239 50 425 0 186 -8 259 -50 425 -133 535 -539 986 -1068 1184
-82 31 -199 62 -311 82 -79 14 -356 26 -425 18z m302 -66 c14 -5 29 -19 32
-31 6 -26 -18 -67 -40 -67 -11 0 -7 -9 15 -29 35 -33 38 -50 14 -79 -20 -23
-30 -25 -117 -23 -51 1 -57 3 -43 14 26 18 37 205 14 222 -13 9 -5 11 41 8 31
-3 69 -9 84 -15z m-496 -23 c-17 -13 -17 -17 14 -111 25 -74 37 -98 53 -102
16 -4 9 -9 -27 -19 -27 -8 -51 -12 -54 -9 -3 3 2 6 11 6 23 0 21 13 -8 101
-37 108 -38 110 -46 54 l-6 -50 1 59 c1 58 2 60 36 72 46 16 49 16 26 -1z
m684 -2 c-77 -14 -120 -142 -69 -207 18 -23 28 -27 62 -24 55 4 79 38 85 117
4 54 2 62 -21 85 -30 30 -27 32 12 12 72 -38 67 -172 -9 -211 -87 -45 -190 11
-190 105 0 67 62 131 125 129 27 -2 28 -2 5 -6z m-828 -128 c29 -41 56 -75 60
-75 4 0 9 17 11 38 3 34 4 34 4 -8 0 -25 -2 -58 -6 -73 -6 -28 -8 -26 -66 57
l-60 85 -4 -42 -5 -42 -5 55 c-5 49 -9 55 -31 59 -23 3 -24 4 -5 12 42 16 54
9 107 -66z m1063 58 c-55 -14 -58 -44 -10 -104 38 -48 43 -73 19 -107 -18 -27
-70 -30 -114 -7 -31 16 -34 26 -20 60 8 19 9 18 9 -4 2 -70 101 -84 101 -14 0
12 -13 38 -30 56 -51 58 -32 128 34 126 21 -1 25 -3 11 -6z m58 -25 c6 -9 7
-23 2 -34 -8 -17 -9 -17 -13 6 -2 14 -9 31 -15 39 -10 11 -9 13 2 10 8 -3 19
-12 24 -21z m-1315 -18 c-11 -17 -8 -29 21 -81 53 -97 41 -164 -34 -189 -57
-19 -85 -1 -134 86 -34 60 -47 75 -62 71 -35 -9 -20 9 26 31 52 25 67 28 40 8
-18 -13 -17 -16 19 -82 21 -38 45 -75 54 -81 24 -19 69 -16 92 7 29 29 25 75
-13 145 -29 54 -35 60 -62 58 -28 -2 -27 0 15 22 25 13 46 24 48 25 1 0 -3 -9
-10 -20z m1527 -80 c28 -14 51 -25 52 -26 1 0 -2 -13 -6 -30 -7 -22 -9 -24
-10 -8 -1 22 -21 44 -56 62 -19 10 -26 2 -74 -85 -51 -91 -53 -97 -35 -110 30
-22 5 -14 -42 13 -24 14 -44 27 -44 28 0 2 10 2 22 2 17 -1 32 16 70 84 26 47
48 88 48 92 0 4 -14 15 -31 24 -25 12 -37 14 -56 5 -36 -16 -39 -14 -14 13
l22 24 53 -32 c28 -17 74 -42 101 -56z m-1380 -67 c3 -13 13 -23 22 -23 21 0
14 -6 -17 -13 -25 -6 -25 -6 -21 51 3 31 6 46 8 32 2 -14 6 -35 8 -47z m-416
-12 c-10 -15 -5 -28 34 -82 76 -104 73 -102 99 -94 15 5 8 -4 -22 -28 -44 -34
-64 -41 -42 -14 9 11 -1 32 -49 96 -50 69 -64 82 -82 78 -16 -4 -12 3 18 28
44 38 61 45 44 16z m1168 -36 c167 -27 337 -91 483 -183 l75 -47 -393 -3
c-217 -1 -568 -1 -780 0 l-387 3 86 52 c145 88 299 147 464 177 107 19 337 20
452 1z m804 -8 c62 -42 76 -108 36 -168 -53 -79 -158 -79 -214 1 -19 27 -21
96 -4 128 32 60 123 79 182 39z m-2076 -77 c19 -21 19 -21 -21 -14 -34 5 -45
2 -71 -20 -43 -36 -49 -68 -22 -122 37 -78 121 -99 179 -44 30 28 31 32 18 52
-25 38 -44 44 -67 24 -38 -35 -22 -11 23 33 39 38 43 40 39 18 -4 -18 2 -30
22 -46 l28 -21 -38 -45 c-47 -59 -87 -79 -138 -72 -90 12 -137 121 -85 196 17
26 81 71 114 81 0 0 9 -9 19 -20z m2228 -55 c16 -23 16 -32 3 -142 -8 -65 -13
-119 -11 -122 5 -4 72 49 104 83 20 21 22 28 11 41 -7 8 -11 18 -8 20 3 3 20
-13 38 -36 24 -30 27 -38 12 -30 -22 12 -31 7 -135 -82 -32 -27 -60 -48 -62
-45 -3 2 2 62 11 132 8 71 13 131 11 133 -6 5 -137 -109 -137 -118 0 -4 5 -11
10 -14 6 -3 10 -11 10 -16 0 -5 -13 6 -30 24 -32 36 -40 58 -15 37 12 -10 24
-5 68 28 77 60 100 88 94 112 -7 27 4 25 26 -5z m-363 -737 c0 -348 -5 -685
-10 -748 -19 -216 -66 -379 -147 -520 -37 -62 -192 -230 -278 -299 -22 -18
-31 -28 -20 -22 34 16 168 135 211 187 22 27 55 70 73 96 17 26 57 71 88 100
205 194 323 476 323 772 l0 116 28 11 c15 6 44 8 64 5 37 -6 38 -6 26 19 -9
19 -9 28 0 37 18 18 24 4 33 -82 8 -85 -3 -273 -21 -357 -89 -407 -387 -756
-768 -899 -35 -14 -67 -22 -72 -19 -5 3 -40 -14 -77 -38 -183 -116 -245 -140
-314 -123 -57 15 -225 112 -332 192 -232 174 -355 372 -409 658 -20 105 -21
153 -25 829 l-5 717 816 0 816 0 0 -632z m-1612 -908 c11 -64 34 -153 51 -200
16 -47 28 -86 27 -88 -6 -6 -103 107 -140 162 -122 184 -186 391 -186 604 0
84 2 93 15 82 25 -20 39 3 40 63 l0 52 -70 0 c-51 0 -78 5 -98 18 -38 24 -46
22 -64 -20 -23 -54 -23 -317 0 -432 79 -393 329 -721 682 -897 61 -30 142 -61
180 -70 39 -9 77 -20 85 -25 100 -55 160 -90 160 -95 0 -15 -243 37 -340 73
-90 34 -212 97 -295 151 -93 62 -280 248 -342 342 -278 417 -310 922 -87 1361
69 135 148 241 261 349 l88 85 6 -700 c5 -658 6 -707 27 -815z m1736 1415
c193 -193 323 -442 371 -710 22 -119 22 -341 0 -460 -99 -553 -533 -984 -1084
-1079 -141 -24 -145 -21 -47 34 49 28 92 50 97 50 22 0 181 56 248 88 197 93
354 228 494 423 96 135 182 351 207 519 17 115 15 339 -4 384 -19 47 -29 50
-76 26 -34 -17 -52 -20 -96 -14 -51 6 -54 5 -64 -20 -7 -18 -6 -37 3 -63 10
-31 17 -38 36 -35 l23 2 -6 -112 c-13 -258 -84 -448 -242 -648 -28 -36 -62
-74 -74 -85 l-23 -20 8 20 c5 11 24 64 42 117 63 183 65 209 70 981 2 383 8
697 13 697 5 0 51 -43 104 -95z m-2214 55 c0 -5 -11 -10 -24 -10 -23 0 -66
-44 -66 -68 0 -5 18 -21 39 -35 34 -22 41 -24 51 -12 7 8 10 26 8 40 -5 26 4
24 47 -9 20 -15 20 -16 -3 -13 -15 1 -29 -6 -39 -20 -14 -21 -12 -23 27 -49
l42 -28 29 34 c24 29 29 42 25 73 -4 35 -3 37 10 20 21 -28 18 -38 -37 -115
-62 -87 -63 -89 -55 -62 5 17 -7 30 -75 78 -52 37 -89 56 -100 53 -11 -3 -19
-4 -19 -2 0 2 21 34 46 70 35 50 51 65 70 65 13 0 24 -4 24 -10z m2686 -124
c17 -31 17 -31 -2 -14 -19 17 -23 15 -108 -39 -81 -51 -87 -58 -81 -82 4 -20
-1 -16 -25 19 -16 25 -30 50 -30 55 0 6 4 4 9 -4 12 -18 28 -11 119 47 63 41
72 50 68 71 l-4 25 18 -24 c10 -13 26 -37 36 -54z m99 -246 c-23 -26 -28 -21
-14 18 8 24 7 37 -6 61 -18 37 -23 37 -76 10 -39 -19 -40 -21 -26 -42 8 -12
24 -22 36 -21 30 1 27 -3 -21 -27 -33 -17 -40 -18 -29 -6 14 18 8 67 -10 67
-13 0 -89 -39 -89 -46 0 -21 45 -87 65 -94 32 -12 32 -20 0 -20 -21 0 -30 12
-65 87 -22 47 -38 88 -35 91 3 3 5 0 5 -6 0 -20 32 -12 120 31 68 34 85 46 83
62 -2 11 16 -17 39 -62 41 -81 42 -82 23 -103z m-2755 64 c0 -15 -77 -174 -84
-174 -2 0 -2 9 1 20 5 17 -8 27 -88 64 -86 41 -95 43 -112 28 -14 -13 -14 -7
5 35 16 35 24 45 26 32 2 -13 29 -32 74 -55 118 -60 115 -59 138 -14 24 47 25
63 5 80 -25 21 -17 32 10 14 14 -9 25 -23 25 -30z m2818 -156 c8 -30 2 -42
-60 -137 -38 -57 -67 -105 -65 -107 2 -2 19 1 38 6 18 6 41 10 49 9 16 -1
-116 -38 -137 -39 -7 0 21 52 62 115 41 63 75 117 75 119 0 4 -32 -3 -129 -30
-46 -13 -52 -18 -48 -36 3 -11 2 -17 -3 -12 -4 5 -11 25 -15 44 -4 25 -3 31 4
20 8 -12 19 -12 72 -2 104 22 134 35 137 60 5 30 10 28 20 -10z m-2912 -63
c-3 -8 -15 -52 -28 -97 -13 -46 -24 -73 -26 -62 -3 18 -19 26 -104 50 -99 28
-101 28 -115 9 -12 -16 -14 -16 -10 -3 3 9 11 35 17 57 6 23 13 41 16 41 4 0
4 -6 1 -14 -9 -22 9 -32 108 -60 84 -25 91 -25 103 -9 18 24 16 102 -3 109 -8
4 -15 10 -15 15 0 5 14 2 31 -6 19 -10 29 -22 25 -30z m2968 -155 c3 -19 3
-29 0 -22 -3 6 -22 12 -42 13 -35 0 -35 1 -12 10 29 12 40 27 33 48 -4 14 -3
14 5 1 5 -8 12 -31 16 -50z m-3122 -20 c54 -15 88 -61 88 -117 0 -55 -24 -98
-66 -118 -41 -19 -60 -19 -110 4 -99 45 -94 192 7 228 43 15 37 15 81 3z
m2930 -106 c-24 -17 -30 -62 -10 -82 7 -7 22 -12 35 -12 18 0 29 13 53 60 29
58 32 60 69 60 46 0 61 -15 68 -71 6 -43 -4 -59 -40 -59 -15 0 -13 4 9 23 21
19 26 29 21 49 -14 55 -68 46 -92 -15 -23 -57 -43 -77 -77 -77 -44 0 -68 31
-68 89 0 44 3 50 23 53 31 5 34 0 9 -18z m-2500 -1 c54 5 59 3 64 -17 3 -12 0
-34 -5 -49 l-11 -28 -29 22 c-16 12 -50 24 -75 26 -25 3 -46 11 -46 17 0 12
-20 -14 -20 -26 0 -4 13 -5 29 -2 16 4 46 1 66 -6 l36 -12 -6 -51 c-8 -68 10
-245 36 -344 42 -161 152 -354 269 -468 33 -33 83 -93 111 -133 56 -82 146
-176 229 -242 49 -38 52 -42 25 -36 -52 12 -196 85 -285 144 -158 105 -319
289 -408 467 -43 87 -89 221 -109 322 -22 111 -25 395 -5 415 10 10 15 10 22
-2 8 -13 10 -12 10 3 0 15 3 16 22 6 13 -7 44 -9 80 -6z m2223 -13 c0 -27 -3
-30 -31 -30 -17 0 -52 -11 -77 -25 l-46 -24 -7 34 c-10 57 -3 64 64 58 35 -3
67 -1 78 5 11 6 19 12 19 12 0 0 0 -13 0 -30z m375 -185 c88 -6 103 -5 113 9
10 13 11 -2 9 -74 -2 -49 -6 -90 -10 -90 -4 0 -18 -3 -32 -7 l-25 -6 28 30
c22 24 28 38 25 64 -3 32 -5 34 -47 37 -24 2 -48 -1 -53 -6 -15 -15 -1 -48 25
-60 19 -9 13 -11 -33 -11 -45 0 -51 2 -33 11 12 6 23 22 25 39 4 27 3 29 -34
31 -21 0 -44 1 -50 2 -8 1 -16 -19 -20 -49 -6 -43 -4 -53 14 -72 23 -24 13
-31 -14 -10 -14 10 -15 28 -11 112 4 64 9 92 14 78 7 -18 18 -22 109 -28z
m-2956 3 c10 -40 6 -55 -8 -29 -7 13 -24 30 -37 37 l-24 13 31 1 c25 0 33 -5
38 -22z m-203 -17 c-42 -39 -41 -73 3 -117 28 -28 41 -34 78 -34 58 0 88 17
116 65 l23 40 -6 -35 c-26 -143 -214 -149 -249 -8 -10 41 3 106 23 111 38 11
41 5 12 -22z m167 -313 c32 -32 -18 -87 -53 -58 -28 23 -12 70 25 70 9 0 21
-5 28 -12z m2980 -19 c6 -49 -58 -65 -73 -18 -9 27 13 51 44 47 20 -2 27 -9
29 -29z m-2808 -236 c33 -71 33 -73 15 -93 -23 -26 -28 -21 -14 18 8 24 7 37
-6 62 -17 33 -28 34 -87 4 -25 -13 -26 -17 -16 -39 8 -17 19 -25 37 -25 22 0
20 -3 -18 -20 -46 -21 -68 -26 -38 -9 20 12 22 29 4 53 -13 17 -15 17 -56 -3
-35 -18 -41 -26 -36 -44 3 -12 -6 -2 -19 23 -29 52 -32 68 -11 50 13 -11 32
-5 111 30 81 37 95 47 90 63 -8 32 7 7 44 -70z m2707 -12 c90 -39 96 -40 110
-24 11 15 11 11 -1 -19 -8 -21 -20 -46 -26 -55 -10 -16 -10 -16 -5 3 5 18 -6
26 -87 63 -98 43 -118 49 -118 29 0 -6 -2 -9 -5 -6 -3 2 3 24 13 49 13 33 18
39 20 23 2 -16 26 -31 99 -63z m-150 -45 c-7 -19 12 -34 104 -84 71 -39 76
-40 93 -24 13 12 11 3 -8 -35 -28 -57 -37 -65 -33 -32 2 17 -15 31 -86 71 -76
43 -90 48 -104 36 -18 -14 -17 -12 12 45 18 36 33 51 22 23z m-2487 -82 c30
-43 37 -72 10 -39 -10 13 -18 11 -59 -17 -103 -69 -124 -110 -81 -156 31 -33
74 -28 142 16 62 40 75 57 57 78 -8 10 -8 14 0 14 6 0 11 -4 11 -10 0 -5 20
-34 45 -65 l46 -55 -7 -120 c-5 -78 -4 -120 3 -120 12 0 113 105 113 117 0 5
-5 14 -12 21 -25 25 1 11 31 -17 31 -29 44 -55 17 -32 -20 17 -38 5 -116 -73
-35 -36 -67 -66 -71 -66 -4 0 -4 62 -2 138 l5 137 -61 -60 c-48 -46 -61 -65
-58 -82 2 -13 3 -23 2 -23 0 0 -14 13 -29 29 -23 24 -25 29 -10 25 26 -6 154
109 154 139 0 22 -26 57 -43 57 -5 0 -31 -16 -58 -36 -26 -19 -62 -39 -80 -44
-46 -13 -94 10 -116 55 -25 52 -10 81 75 144 62 46 70 56 61 72 -18 35 0 20
31 -27z m2425 -33 c-4 -15 11 -30 77 -75 81 -55 108 -66 108 -46 0 6 5 10 10
10 6 0 -3 -20 -20 -45 -34 -50 -41 -55 -33 -26 4 16 -13 31 -81 77 -72 47 -88
55 -101 44 -22 -18 -18 -5 11 40 29 44 39 51 29 21z m-74 -108 c-5 -11 -5 -40
1 -76 11 -65 20 -70 119 -71 l57 -1 -30 -37 c-31 -40 -41 -47 -32 -24 7 18 -1
22 -53 31 -38 6 -43 4 -44 -12 0 -15 -1 -15 -9 3 -7 17 -22 24 -71 33 -45 8
-66 8 -76 0 -29 -25 -11 9 23 42 19 18 32 26 29 17 -5 -13 0 -19 22 -24 15 -3
36 -8 47 -11 17 -5 18 -1 11 33 -9 49 -14 57 -31 50 -22 -8 -17 5 13 36 31 32
38 35 24 11z m66 -262 c15 13 15 12 6 -6 -6 -11 -19 -28 -30 -37 -17 -16 -18
-14 -19 40 l-2 56 14 -33 c12 -30 16 -32 31 -20z m-307 24 c-14 -17 -12 -21
63 -112 64 -78 69 -80 116 -29 17 18 22 33 19 55 -6 39 -3 39 17 0 15 -29 15
-31 -7 -49 -13 -10 -46 -36 -75 -59 -35 -28 -50 -36 -47 -24 7 26 -112 168
-139 167 -17 -1 -14 5 19 32 42 36 54 43 34 19z m-1712 -46 c106 -71 129 -115
97 -182 -34 -72 -99 -92 -177 -53 -64 31 -125 78 -92 70 18 -5 30 9 77 82 42
66 53 91 45 101 -18 22 1 15 50 -18z m1642 -70 c0 -4 -13 -2 -30 4 -43 16 -81
0 -103 -44 -23 -47 -14 -91 28 -135 27 -28 40 -34 74 -34 51 0 91 34 91 77 l1
28 14 -25 c16 -30 9 -41 -52 -77 -76 -44 -155 -26 -188 43 -34 72 -3 143 78
179 47 21 54 21 70 7 9 -8 17 -19 17 -23z m-215 -99 l15 -29 -34 20 c-67 39
-126 -5 -126 -93 0 -43 4 -54 34 -84 26 -26 43 -34 73 -35 38 -1 38 -1 10 -11
-97 -35 -189 76 -143 174 18 38 55 63 112 77 22 5 40 9 41 10 1 1 9 -12 18
-29z m-947 -55 c1 -1 9 -44 18 -96 8 -51 16 -95 18 -97 2 -2 26 32 52 74 27
43 52 81 55 86 3 5 23 4 45 -1 21 -5 29 -9 18 -10 -19 -1 -23 -10 -32 -63 -25
-150 -26 -158 -6 -158 9 0 15 -3 12 -6 -4 -3 -28 -2 -54 2 -39 5 -44 8 -27 15
17 6 23 21 33 94 7 47 10 88 7 91 -2 3 -30 -36 -62 -86 -31 -49 -60 -90 -64
-90 -4 0 -13 43 -20 95 -8 52 -17 95 -21 95 -4 0 -20 -34 -36 -76 -27 -75 -27
-77 -8 -92 17 -13 17 -14 1 -8 -10 3 -28 6 -40 6 -19 0 -19 1 -5 13 9 6 32 53
51 102 l35 90 -21 19 -22 19 35 -8 c19 -4 36 -8 38 -10z m722 -29 l10 -30 -23
22 c-13 12 -28 22 -35 22 -6 0 -13 4 -16 9 -3 4 8 8 24 7 23 -1 32 -7 40 -30z
m-107 14 c-59 -24 -76 -132 -29 -186 13 -16 39 -34 57 -40 l34 -12 -33 -1
c-95 -2 -153 100 -107 189 16 30 58 59 85 59 8 0 5 -4 -7 -9z m-188 -35 c80
-39 80 -158 0 -211 -15 -10 -55 -18 -107 -21 -63 -3 -79 -2 -65 7 14 9 17 27
17 116 0 99 -1 105 -22 114 -17 6 0 9 60 9 56 1 95 -4 117 -14z m-772 -41 c9
-10 -4 -34 -19 -34 -8 0 -14 9 -14 20 0 19 19 27 33 14z m1357 -18 c0 -14 -10
-30 -25 -40 -35 -23 -40 -20 -16 10 12 15 21 33 21 40 0 8 5 14 10 14 6 0 10
-11 10 -24z m-250 -90 c0 -18 -8 -27 -31 -35 -45 -15 -59 -13 -27 4 15 8 29
24 33 35 9 28 25 25 25 -4z"/>
<path d="M1910 3458 c0 -7 -3 -30 -6 -50 -6 -37 -6 -38 24 -38 47 0 69 52 36
84 -18 19 -54 21 -54 4z"/>
<path d="M1899 3320 c-1 -22 -2 -46 -3 -52 -1 -17 51 -23 70 -7 35 29 4 99
-44 99 -19 0 -22 -6 -23 -40z"/>
<path d="M2760 3118 c-44 -31 -69 -66 -76 -109 -5 -28 -1 -41 18 -64 34 -39
78 -38 119 1 72 68 80 147 18 179 -37 19 -40 19 -79 -7z"/>
<path d="M1054 2826 c-10 -43 3 -1326 15 -1396 48 -285 156 -491 337 -645 74
-63 250 -181 324 -218 94 -46 163 -26 365 108 221 146 356 314 429 533 61 186
66 257 66 993 l0 649 -765 0 -765 0 -6 -24z m756 -146 c14 -34 35 -30 26 5 -3
13 0 27 8 34 11 9 15 6 20 -13 3 -13 3 -32 0 -40 -10 -26 7 -18 38 17 l29 32
-5 -47 c-6 -54 1 -59 32 -23 28 32 47 33 31 3 -6 -13 -18 -31 -27 -40 -17 -20
-15 -21 46 -9 l44 9 -39 -40 -38 -40 41 7 c26 4 44 2 49 -4 3 -6 5 -11 3 -11
-2 0 -21 -7 -43 -14 l-40 -14 42 -20 c44 -19 47 -32 7 -32 -31 0 -55 -10 -48
-21 3 -5 14 -9 24 -9 11 0 24 -9 30 -20 10 -19 9 -20 -17 -14 -15 4 -33 11
-39 15 -21 16 -23 -3 -3 -34 27 -46 24 -50 -20 -27 -41 21 -62 13 -36 -13 8
-9 15 -26 15 -38 0 -21 -1 -21 -25 5 -14 15 -26 32 -26 39 -1 7 -7 -10 -13
-38 l-13 -50 -22 44 c-16 30 -25 40 -31 31 -4 -7 -6 -20 -3 -29 2 -9 -3 -25
-11 -36 -14 -19 -15 -17 -16 29 l0 50 -36 -35 -36 -34 6 48 c8 54 3 57 -30 22
-13 -14 -27 -25 -33 -25 -12 0 13 50 31 61 23 14 1 20 -41 10 -22 -5 -41 -6
-41 -3 0 3 15 21 33 40 l32 34 -38 -6 c-57 -10 -67 5 -16 24 l44 18 -37 18
c-39 18 -41 34 -5 34 12 0 29 4 37 10 12 7 10 11 -11 18 -14 6 -31 17 -39 27
-12 15 -11 16 16 9 16 -4 37 -11 47 -16 22 -11 21 -6 -3 42 -23 45 -19 48 28
20 18 -11 35 -20 37 -20 11 0 4 28 -10 40 -8 7 -15 22 -15 33 0 20 1 20 25 -3
14 -13 25 -31 25 -39 0 -14 1 -14 10 -1 5 8 10 30 10 49 0 27 2 31 14 22 8 -6
19 -25 26 -41z m-468 -82 c-17 -17 -15 -38 3 -38 8 0 15 -9 15 -20 0 -14 -5
-18 -17 -13 -14 5 -15 1 -9 -27 8 -43 12 -46 31 -26 9 9 23 16 31 16 8 0 14
10 14 26 0 21 -3 24 -14 15 -10 -9 -15 -8 -19 3 -7 18 1 26 25 26 10 0 18 5
18 10 0 6 9 1 20 -10 11 -11 20 -28 20 -37 0 -14 -2 -15 -9 -4 -5 7 -14 10
-20 7 -13 -9 -15 -36 -2 -36 5 0 13 -9 16 -21 5 -16 10 -18 21 -8 12 10 13 7
8 -19 -3 -16 -1 -39 6 -51 17 -33 -6 -78 -43 -85 -42 -8 -207 -6 -237 4 -14 4
-21 8 -16 9 5 1 1 10 -8 20 -14 15 -16 27 -10 53 4 18 6 42 5 53 -3 16 -1 17
13 6 13 -11 16 -11 16 1 0 26 26 52 45 45 13 -6 15 -10 6 -21 -6 -7 -8 -16 -4
-19 11 -12 23 -8 23 8 0 8 5 15 10 15 6 0 10 -5 10 -12 0 -21 18 6 22 32 2 19
-1 25 -14 24 -13 -1 -18 5 -18 22 0 18 4 22 16 17 14 -5 16 -1 12 20 -5 24 -2
27 20 27 20 0 23 -3 14 -12z m990 0 c-17 -17 -15 -38 3 -38 8 0 15 -9 15 -20
0 -14 -5 -18 -17 -13 -14 5 -15 1 -9 -27 8 -41 14 -49 26 -30 8 13 10 12 10
-2 0 -10 7 -18 15 -18 18 0 20 26 3 33 -8 3 -6 6 5 6 12 1 17 9 17 27 0 22 -2
25 -15 14 -13 -10 -15 -9 -15 9 0 14 6 21 19 21 11 0 22 6 24 13 3 7 6 5 6 -5
1 -10 8 -18 16 -18 8 0 15 -7 15 -15 0 -9 -6 -12 -15 -9 -9 4 -18 -1 -22 -12
-4 -11 -2 -19 6 -22 9 -3 9 -7 0 -18 -7 -8 -9 -18 -5 -21 4 -4 11 -1 16 7 8
12 10 11 10 -4 0 -19 1 -19 13 -2 12 16 13 13 13 -21 1 -21 4 -47 7 -58 5 -13
0 -29 -12 -45 -18 -23 -28 -25 -111 -29 -134 -5 -172 3 -188 38 -8 18 -10 40
-5 58 4 15 6 37 4 48 -2 11 0 17 5 13 4 -4 13 -3 21 3 9 9 13 8 13 0 0 -6 5
-11 12 -11 9 0 9 3 1 11 -7 7 -9 25 -6 40 3 18 1 29 -6 29 -6 0 -11 -5 -11
-12 0 -9 -3 -9 -11 -1 -9 9 -6 18 9 38 12 15 23 21 27 15 3 -5 15 -10 26 -10
13 0 19 -7 19 -21 0 -18 -3 -19 -15 -9 -12 10 -16 9 -21 -4 -4 -10 0 -22 11
-30 13 -9 15 -15 6 -20 -6 -4 -9 -12 -6 -17 9 -14 25 -11 25 6 0 8 5 15 10 15
6 0 10 -5 10 -12 0 -21 18 6 22 32 2 19 -1 25 -14 24 -13 -1 -18 5 -18 22 0
18 4 22 16 17 14 -5 16 -1 12 20 -5 24 -2 27 20 27 20 0 23 -3 14 -12z m-1192
-34 c0 -14 4 -23 9 -19 5 3 9 -8 9 -24 -1 -39 -28 -30 -28 9 0 16 -3 35 -6 44
-3 9 -1 16 5 16 6 0 11 -12 11 -26z m384 11 c-4 -8 -7 -15 -9 -15 -2 0 -5 7
-9 15 -3 9 0 15 9 15 9 0 12 -6 9 -15z m608 -11 c-3 -17 -1 -25 6 -21 13 9 24
-21 14 -38 -12 -23 -29 -3 -35 43 -4 30 -2 42 8 42 8 0 10 -9 7 -26z m382 11
c-4 -8 -7 -15 -9 -15 -2 0 -5 7 -9 15 -3 9 0 15 9 15 9 0 12 -6 9 -15z m-1244
-37 c0 -16 -3 -18 -14 -9 -11 9 -15 8 -20 -6 -6 -15 -8 -15 -17 -3 -7 13 -10
13 -18 1 -7 -10 -10 -10 -16 -1 -11 18 32 48 61 42 16 -3 24 -11 24 -24z m248
-14 c1 -10 -5 -24 -15 -30 -16 -10 -18 -7 -20 22 -1 25 2 31 15 30 9 -2 18
-11 20 -22z m990 -2 c4 -26 -23 -31 -32 -6 -10 25 -7 32 12 30 9 -2 18 -13 20
-24z m-743 -606 c18 -8 38 -23 44 -34 7 -13 12 -96 13 -209 0 -103 3 -174 5
-157 4 27 7 30 32 26 16 -2 32 1 36 8 5 9 1 10 -16 6 -23 -7 -23 -7 -5 8 11 9
14 16 7 16 -7 0 -10 4 -6 10 3 5 12 7 20 3 8 -3 15 0 15 6 0 21 -51 12 -57 -9
-14 -55 -23 -5 -23 133 0 146 1 155 23 175 34 32 69 36 154 16 43 -10 115 -18
160 -18 l83 -1 0 -262 0 -263 -72 0 c-40 0 -111 9 -158 20 -115 26 -277 27
-396 0 -49 -11 -122 -20 -161 -20 l-73 0 0 263 0 262 98 2 c53 1 120 8 147 16
65 20 88 20 130 3z m-427 -299 l2 -287 88 0 c48 0 114 7 147 15 33 8 83 14
112 15 44 0 55 -4 71 -25 14 -17 23 -22 27 -14 5 7 21 9 44 5 29 -4 39 -2 49
14 10 16 23 20 70 20 31 0 84 -7 117 -15 33 -8 102 -14 153 -15 l92 0 0 290
c0 249 2 290 15 290 19 0 29 -41 22 -86 -6 -33 -5 -34 28 -34 50 0 65 -9 65
-40 0 -30 -15 -40 -61 -40 -26 0 -29 -3 -29 -34 0 -31 3 -34 38 -41 20 -4 43
-11 50 -17 31 -26 -2 -68 -54 -68 -32 0 -34 -2 -34 -35 0 -33 2 -35 32 -35 33
0 68 -24 68 -46 0 -19 -41 -44 -72 -44 -27 0 -28 -2 -28 -49 0 -28 -4 -52 -9
-56 -5 -3 -107 0 -226 7 -170 9 -218 9 -228 -1 -9 -10 -8 -11 6 -6 10 4 17 2
17 -4 0 -7 -31 -11 -90 -11 -53 0 -90 4 -90 10 0 6 6 10 13 11 6 0 2 4 -11 9
-14 6 -92 4 -210 -5 -103 -8 -195 -15 -204 -15 -15 0 -18 9 -18 55 0 55 0 55
-31 55 -44 0 -69 17 -69 46 0 19 4 25 15 20 8 -3 14 0 12 7 -1 7 13 13 36 15
35 3 37 5 37 37 0 33 -2 34 -41 37 -80 6 -80 70 0 76 41 3 41 4 41 42 0 38 0
39 -41 42 -80 6 -80 70 0 76 l41 3 0 53 c0 29 3 56 7 60 24 24 28 -15 31 -287z
m39 -124 c-1 -76 -3 -14 -3 137 0 151 2 213 3 138 2 -76 2 -200 0 -275z m890
60 c-1 -65 -3 -12 -3 117 0 129 2 182 3 118 2 -65 2 -171 0 -235z m-839 -206
l67 -3 -72 -2 -73 -2 2 278 3 277 2 -272 3 -272 68 -4z m862 268 l0 -275 -72
2 -73 2 68 3 67 4 0 269 c0 149 2 270 5 270 3 0 5 -124 5 -275z m-482 -227 c9
-9 15 -9 24 0 7 7 32 11 58 11 l45 -2 -50 -9 c-61 -10 -66 -10 -135 1 l-55 8
51 2 c27 0 55 -4 62 -11z m-15 -23 c25 -13 32 -13 57 0 16 8 39 14 52 14 22
-2 22 -2 1 -6 -12 -2 -27 -11 -33 -19 -16 -19 -94 -19 -110 0 -6 8 -26 17 -43
19 -29 3 -28 4 8 5 22 1 53 -5 68 -13z m95 -264 c20 -10 78 -56 127 -101 50
-46 120 -108 157 -138 65 -54 67 -56 50 -75 -42 -47 -278 -199 -346 -223 -61
-22 -103 -10 -223 62 -107 64 -253 170 -253 183 0 4 44 43 98 86 53 44 124
105 157 136 33 31 74 64 90 72 41 22 98 21 143 -2z m-339 -45 l53 -54 -108
-91 -109 -91 -67 72 c-38 39 -68 77 -68 83 0 7 37 40 82 73 69 52 88 62 123
62 36 0 47 -6 94 -54z m693 43 c18 -10 128 -90 152 -110 10 -9 -52 -94 -104
-144 -28 -26 -33 -28 -52 -16 -33 20 -198 164 -198 172 0 4 25 30 56 58 59 54
99 65 146 40z"/>
<path d="M1375 2470 c-8 -13 15 -24 27 -12 6 6 4 11 -6 15 -8 3 -18 2 -21 -3z"/>
<path d="M1210 2460 c0 -5 5 -10 11 -10 5 0 7 5 4 10 -3 6 -8 10 -11 10 -2 0
-4 -4 -4 -10z"/>
<path d="M1420 2460 c0 -5 5 -10 10 -10 6 0 10 5 10 10 0 6 -4 10 -10 10 -5 0
-10 -4 -10 -10z"/>
<path d="M1308 2433 c12 -2 30 -2 40 0 9 3 -1 5 -23 4 -22 0 -30 -2 -17 -4z"/>
<path d="M1238 2333 c7 -3 16 -2 19 1 4 3 -2 6 -13 5 -11 0 -14 -3 -6 -6z"/>
<path d="M1388 2333 c7 -3 16 -2 19 1 4 3 -2 6 -13 5 -11 0 -14 -3 -6 -6z"/>
<path d="M2298 2433 c12 -2 30 -2 40 0 9 3 -1 5 -23 4 -22 0 -30 -2 -17 -4z"/>
<path d="M2228 2333 c7 -3 16 -2 19 1 4 3 -2 6 -13 5 -11 0 -14 -3 -6 -6z"/>
<path d="M1780 1804 c0 -8 5 -12 10 -9 6 3 10 10 10 16 0 5 -4 9 -10 9 -5 0
-10 -7 -10 -16z"/>
<path d="M1884 1805 c3 -8 0 -18 -7 -22 -7 -5 -18 -18 -24 -30 -11 -19 -10
-24 7 -33 19 -10 60 1 60 16 0 3 -9 2 -20 -1 -11 -4 -20 -2 -20 4 0 6 5 11 11
11 5 0 7 4 4 10 -3 6 1 7 9 4 9 -3 16 -1 16 5 0 6 -4 11 -10 11 -5 0 -10 9
-10 20 0 11 -5 20 -11 20 -6 0 -9 -7 -5 -15z"/>
<path d="M1652 1768 c-7 -7 -12 -22 -12 -35 0 -20 5 -23 38 -21 36 1 38 3 39
35 1 29 -2 33 -26 33 -15 0 -32 -5 -39 -12z m34 -14 c-3 -9 -6 -20 -6 -25 0
-5 -4 -9 -9 -9 -4 0 -6 11 -3 25 2 14 9 25 14 25 6 0 7 -7 4 -16z"/>
<path d="M1740 1752 c0 -16 3 -31 6 -35 8 -8 34 3 34 15 0 5 -5 6 -10 3 -7 -4
-9 2 -4 19 5 20 2 26 -10 26 -11 0 -16 -9 -16 -28z"/>
<path d="M1938 1745 c3 -27 7 -33 17 -25 15 12 8 60 -9 60 -8 0 -11 -12 -8
-35z"/>
<path d="M1977 1763 c-10 -9 -9 -23 2 -23 5 0 11 7 15 15 5 15 -5 20 -17 8z"/>
<path d="M1980 1630 c-8 -5 -11 -12 -7 -16 4 -4 13 -2 19 4 15 15 7 24 -12 12z"/>
<path d="M1470 1595 c0 -8 5 -15 10 -15 6 0 10 7 10 15 0 8 -4 15 -10 15 -5 0
-10 -7 -10 -15z"/>
<path d="M1677 1598 c-23 -8 -28 -15 -25 -36 2 -15 10 -28 19 -30 20 -4 52 25
46 42 -2 6 3 16 12 23 14 11 14 12 -4 12 -11 0 -33 -5 -48 -11z m4 -51 c-8 -8
-11 -7 -11 4 0 9 3 19 7 23 4 4 9 2 11 -4 3 -7 -1 -17 -7 -23z"/>
<path d="M1740 1595 c-9 -10 -9 -15 -1 -15 6 0 11 -9 11 -20 0 -24 25 -27 34
-4 3 8 2 12 -4 9 -6 -3 -10 1 -10 9 0 9 7 16 15 16 8 0 15 5 15 10 0 16 -46
12 -60 -5z"/>
<path d="M1604 1594 c-11 -5 -7 -61 6 -69 4 -3 14 3 21 12 12 14 12 16 0 8
-11 -6 -13 -2 -8 23 6 31 3 35 -19 26z"/>
<path d="M1928 1595 c-7 -8 3 -54 13 -61 5 -3 16 -1 26 4 11 7 21 6 31 -4 16
-16 31 -17 52 -4 12 7 12 12 2 22 -18 18 -15 27 10 20 14 -3 19 -2 14 6 -11
18 -66 15 -66 -3 0 -8 -4 -15 -10 -15 -5 0 -10 9 -10 20 0 11 -4 20 -10 20 -5
0 -10 -9 -10 -19 0 -11 -5 -23 -10 -26 -7 -4 -9 2 -4 19 4 19 2 26 -8 26 -8 0
-17 -2 -20 -5z m122 -49 c0 -2 -7 -6 -15 -10 -8 -3 -15 -1 -15 4 0 6 7 10 15
10 8 0 15 -2 15 -4z"/>
<path d="M1541 1581 c-20 -13 -32 -101 -14 -101 7 0 13 6 13 13 0 7 9 18 21
25 14 9 19 21 17 39 -3 29 -16 37 -37 24z m15 -48 c-11 -11 -17 4 -9 23 7 18
8 18 11 1 2 -10 1 -21 -2 -24z"/>
<path d="M1473 1569 c-23 -7 -35 -17 -39 -35 -8 -33 7 -48 37 -38 13 4 26 7
29 7 3 -1 6 16 6 38 1 21 1 39 0 38 0 0 -16 -5 -33 -10z m-2 -46 c-9 -16 -10
-14 -11 12 0 21 3 26 11 18 8 -8 8 -16 0 -30z"/>
<path d="M2086 1558 c-10 -37 -7 -50 10 -46 21 4 31 68 10 68 -7 0 -16 -10
-20 -22z"/>
<path d="M2140 1535 c0 -25 4 -35 12 -33 17 6 17 60 1 65 -9 3 -13 -7 -13 -32z"/>
<path d="M2180 1535 c-7 -8 -8 -15 -2 -15 5 0 15 7 22 15 7 8 8 15 2 15 -5 0
-15 -7 -22 -15z"/>
<path d="M1250 1750 c0 -5 9 -10 20 -10 11 0 20 5 20 10 0 6 -9 10 -20 10 -11
0 -20 -4 -20 -10z"/>
<path d="M2350 1750 c0 -5 9 -10 20 -10 11 0 20 5 20 10 0 6 -9 10 -20 10 -11
0 -20 -4 -20 -10z"/>
<path d="M1243 1723 c9 -2 25 -2 35 0 9 3 1 5 -18 5 -19 0 -27 -2 -17 -5z"/>
<path d="M1250 1590 c0 -5 9 -10 20 -10 11 0 20 5 20 10 0 6 -9 10 -20 10 -11
0 -20 -4 -20 -10z"/>
<path d="M2355 1590 c3 -5 13 -10 21 -10 8 0 14 5 14 10 0 6 -9 10 -21 10 -11
0 -17 -4 -14 -10z"/>
<path d="M1258 1563 c6 -2 18 -2 25 0 6 3 1 5 -13 5 -14 0 -19 -2 -12 -5z"/>
<path d="M2373 1563 c9 -2 23 -2 30 0 6 3 -1 5 -18 5 -16 0 -22 -2 -12 -5z"/>
<path d="M1250 1440 c0 -5 9 -10 20 -10 11 0 20 5 20 10 0 6 -9 10 -20 10 -11
0 -20 -4 -20 -10z"/>
<path d="M2355 1440 c-3 -5 3 -10 14 -10 12 0 21 5 21 10 0 6 -6 10 -14 10 -8
0 -18 -4 -21 -10z"/>
<path d="M2907 1868 c-2 -7 -1 -33 3 -58 4 -25 8 -39 9 -32 1 16 42 16 65 -1
11 -8 15 -19 10 -31 -6 -15 -15 -17 -51 -13 -35 4 -43 2 -43 -12 0 -13 8 -16
43 -13 51 5 67 17 67 48 0 26 -26 44 -64 44 -14 0 -26 5 -26 10 0 6 9 10 19
10 11 0 23 9 26 20 3 11 13 20 21 20 17 0 19 -26 2 -33 -8 -3 -5 -6 5 -6 14
-1 18 5 15 27 -4 38 -43 43 -60 8 -6 -14 -15 -26 -19 -26 -13 0 -20 18 -9 25
5 3 10 10 10 16 0 13 -17 11 -23 -3z"/>
<path d="M2877 1583 c-17 -72 -22 -111 -15 -118 6 -7 9 -3 6 10 -4 25 23 31
61 12 27 -13 30 -13 34 4 3 11 2 17 -2 14 -4 -2 -24 1 -44 7 -36 11 -48 30
-27 43 6 4 7 11 4 17 -5 8 -1 9 10 5 10 -4 24 -7 31 -7 8 0 20 -7 28 -15 13
-12 15 -12 19 8 3 17 -1 22 -19 23 -47 3 -72 14 -67 28 6 16 74 10 85 -7 4 -5
10 5 14 23 9 41 -14 71 -39 50 -11 -8 -16 -9 -16 -1 0 6 -8 11 -19 11 -15 0
-23 -19 -44 -107z m58 76 c10 -14 1 -21 -19 -13 -9 3 -13 10 -10 15 7 12 21
11 29 -2z m55 -10 c0 -5 -9 -9 -20 -9 -19 0 -26 11 -14 23 8 8 34 -3 34 -14z"/>
<path d="M2830 1431 c-16 -31 -13 -37 30 -54 60 -23 51 -38 -17 -31 l-58 7 40
-45 c37 -42 55 -50 55 -27 0 6 -4 8 -9 4 -13 -8 -22 10 -15 29 5 13 9 14 20 5
17 -14 18 -14 37 33 14 34 14 37 -1 36 -25 -1 -72 20 -72 32 0 16 28 12 38 -6
7 -12 17 -15 36 -10 14 3 26 11 26 16 0 6 -11 8 -25 4 -18 -4 -27 -1 -31 10
-8 22 -41 20 -54 -3z m20 -105 c0 -11 -19 -15 -25 -6 -3 5 1 10 9 10 9 0 16
-2 16 -4z"/>
<path d="M2740 1250 c-21 -39 9 -62 50 -40 27 14 38 -9 14 -27 -19 -14 -19
-15 1 -11 13 2 21 12 23 31 4 32 -17 44 -48 27 -16 -8 -25 -9 -33 -1 -7 7 -4
13 13 19 19 7 20 10 7 15 -11 4 -20 -1 -27 -13z"/>
<path d="M2692 1175 c-21 -33 -21 -35 -3 -35 10 0 24 -6 30 -14 9 -11 2 -15
-38 -20 -46 -6 -82 -26 -48 -26 8 0 29 -13 46 -29 25 -24 33 -26 42 -15 9 11
7 14 -8 14 -19 0 -43 18 -43 32 0 4 24 8 53 8 l52 1 -38 32 c-20 18 -37 35
-37 40 0 15 28 6 55 -19 22 -20 30 -23 36 -12 12 18 11 25 -4 25 -20 0 -67 34
-61 44 3 5 2 9 -3 9 -4 0 -18 -16 -31 -35z"/>
<path d="M2586 1044 c-37 -37 -1 -103 49 -90 14 4 31 17 37 31 23 52 -46 100
-86 59z m52 -10 c29 -20 26 -58 -5 -62 -30 -4 -61 41 -43 63 16 19 20 19 48
-1z"/>
<path d="M2508 974 c-15 -15 -14 -18 13 -41 16 -14 29 -31 29 -39 0 -19 14
-18 33 4 23 25 21 43 -7 70 -28 26 -46 28 -68 6z m42 -18 c0 -8 9 -16 20 -19
14 -4 18 -10 13 -22 -5 -15 -10 -13 -34 16 -15 18 -25 37 -22 41 6 12 23 -1
23 -16z"/>
<path d="M243 2079 c-66 -19 -84 -90 -33 -133 41 -34 107 -43 154 -21 38 18
50 43 44 90 -6 52 -93 86 -165 64z"/>
<path d="M641 1895 c0 -16 3 -25 5 -18 3 7 12 9 20 6 12 -4 11 -8 -6 -20 -11
-8 -20 -21 -20 -29 0 -11 5 -10 22 5 19 19 22 19 33 4 15 -20 45 -11 45 13 0
13 -3 14 -14 5 -10 -9 -16 -8 -26 4 -11 13 -9 15 13 15 14 0 27 6 30 13 3 9
-8 11 -40 8 -31 -2 -48 1 -54 10 -6 10 -8 4 -8 -16z"/>
<path d="M642 1766 c2 -24 9 -41 18 -44 12 -4 13 -2 3 9 -20 21 -16 49 7 49
22 0 27 -15 8 -23 -7 -3 -3 -6 9 -6 16 -1 21 3 17 14 -4 10 0 15 11 15 13 0
16 -6 12 -25 -2 -14 0 -24 5 -23 5 2 9 7 9 11 -1 4 -1 19 -1 35 0 26 -2 27
-50 27 l-51 0 3 -39z"/>
<path d="M733 1709 c-6 -6 -29 -10 -51 -7 -40 3 -41 3 -35 -27 8 -49 11 -55
30 -55 17 1 17 1 1 11 -10 5 -18 18 -18 28 0 15 9 20 40 23 22 2 42 -1 44 -7
2 -5 5 2 5 18 1 30 0 32 -16 16z"/>
<path d="M744 1620 c-5 -5 -26 -11 -47 -12 -28 -2 -37 -7 -37 -21 0 -15 3 -16
20 -7 11 6 35 11 54 12 27 1 32 5 28 20 -5 21 -5 21 -18 8z"/>
<path d="M696 1554 c-16 -16 -21 -50 -10 -78 6 -16 54 -23 54 -8 0 13 -20 38
-20 25 0 -7 -7 -13 -15 -13 -23 0 -19 47 5 60 41 22 81 -12 60 -50 -8 -16 -8
-18 5 -14 21 9 19 50 -5 74 -24 24 -53 26 -74 4z"/>
<path d="M790 1461 c0 -12 -66 -34 -80 -26 -15 9 -12 -9 6 -31 8 -10 13 -14
10 -8 -4 7 12 17 39 25 43 13 57 30 35 44 -5 3 -10 2 -10 -4z"/>
<path d="M752 1388 c-21 -21 -14 -66 13 -84 51 -33 104 21 71 71 -18 27 -63
34 -84 13z m81 -22 c9 -22 -15 -46 -48 -49 -33 -2 -46 23 -25 48 16 19 66 19
73 1z"/>
<path d="M832 1284 c-18 -12 -38 -24 -44 -26 -6 -2 -8 -9 -5 -15 5 -8 16 -3
33 14 14 14 27 23 30 21 2 -3 -2 -26 -10 -51 -16 -52 -11 -56 36 -28 17 11 35
18 40 15 18 -11 6 -32 -27 -50 -40 -21 -42 -26 -18 -45 9 -8 14 -9 10 -2 -7
12 41 53 62 53 16 0 14 4 -14 46 -14 20 -25 30 -25 22 0 -8 -11 -20 -25 -26
-30 -14 -29 -16 -10 39 9 23 12 46 8 49 -5 4 -23 -3 -41 -16z"/>
<path d="M947 1104 c-16 -19 -33 -31 -38 -28 -20 12 -7 -14 20 -40 18 -17 31
-24 35 -17 4 6 1 11 -7 11 -27 0 -26 27 2 54 21 20 30 23 39 14 7 -7 12 -18
12 -25 0 -8 12 -18 28 -24 l27 -10 -38 -36 c-26 -23 -36 -38 -29 -45 7 -7 22
3 45 29 l36 38 9 -24 c6 -17 11 -21 16 -12 5 7 6 13 5 14 -18 11 -86 76 -83
79 2 3 -9 16 -24 30 l-27 25 -28 -33z"/>
<path d="M960 1064 c0 -8 6 -11 15 -8 8 4 15 9 15 13 0 4 -7 8 -15 8 -8 0 -15
-6 -15 -13z"/>
<path d="M943 570 c-29 -44 -53 -85 -53 -91 0 -22 35 -38 79 -39 37 0 49 5 77
36 45 47 47 104 7 146 -15 15 -34 28 -42 28 -9 0 -40 -36 -68 -80z"/>
<path d="M1797 393 c-4 -3 -7 -50 -7 -104 0 -110 8 -124 63 -108 91 26 113
149 36 203 -23 16 -80 22 -92 9z"/>
</g>
</svg>
